<mxfile host="65bd71144e">
    <diagram id="NrZ29duDLyXxqPhjrZT9" name="Page-1">
        <mxGraphModel dx="799" dy="469" grid="1" gridSize="10" guides="1" tooltips="1" connect="1" arrows="1" fold="1" page="1" pageScale="1" pageWidth="850" pageHeight="1100" math="0" shadow="0">
            <root>
                <mxCell id="0"/>
                <mxCell id="1" parent="0"/>
                <mxCell id="2" value="&lt;font style=&quot;font-size: 104px;&quot;&gt;ECHO&lt;/font&gt;" style="text;strokeColor=none;fillColor=none;html=1;fontSize=24;fontStyle=1;verticalAlign=middle;align=center;" vertex="1" parent="1">
                    <mxGeometry x="335" y="40" width="350" height="120" as="geometry"/>
                </mxCell>
                <mxCell id="3" value="&lt;span style=&quot;font-weight: normal;&quot;&gt;Electrochemistry Domain Ontology&lt;/span&gt;" style="text;strokeColor=none;fillColor=none;html=1;fontSize=24;fontStyle=1;verticalAlign=middle;align=center;" vertex="1" parent="1">
                    <mxGeometry x="320" y="160" width="380" height="40" as="geometry"/>
                </mxCell>
                <mxCell id="12" value="" style="group" vertex="1" connectable="0" parent="1">
                    <mxGeometry x="140" y="40" width="181.1" height="161.88" as="geometry"/>
                </mxCell>
                <mxCell id="8" value="" style="ellipse;whiteSpace=wrap;html=1;fontSize=104;fillColor=none;rotation=30;shadow=1;strokeWidth=4;strokeColor=#028cae;" vertex="1" parent="12">
                    <mxGeometry x="9.616304589462196" y="36.42974499999999" width="161.86739082107562" height="81.84383" as="geometry"/>
                </mxCell>
                <mxCell id="10" value="" style="ellipse;whiteSpace=wrap;html=1;fontSize=104;fillColor=none;rotation=-210;shadow=1;strokeWidth=4;strokeColor=#028cae;" vertex="1" parent="12">
                    <mxGeometry x="9.616304589462196" y="36.42974499999999" width="161.86739082107562" height="81.84383" as="geometry"/>
                </mxCell>
                <mxCell id="11" value="" style="ellipse;whiteSpace=wrap;html=1;fontSize=104;fillColor=none;rotation=90;shadow=1;strokeWidth=4;strokeColor=#028cae;" vertex="1" parent="12">
                    <mxGeometry x="9.616304589462196" y="40.018084999999985" width="161.86739082107562" height="81.84383" as="geometry"/>
                </mxCell>
                <mxCell id="5" value="" style="ellipse;whiteSpace=wrap;html=1;aspect=fixed;fontSize=104;fillColor=#005CA2;strokeWidth=4;strokeColor=#e4c89e;" vertex="1" parent="12">
                    <mxGeometry x="50.0831522947311" y="36.42974499999999" width="80.93369541053781" height="80.93369541053781" as="geometry"/>
                </mxCell>
                <mxCell id="6" value="" style="verticalLabelPosition=bottom;verticalAlign=top;html=1;shape=mxgraph.basic.polygon;polyCoords=[[0.62,0.32],[0.57,0.43],[0.62,0.43],[0.46,0.65],[0.46,0.65],[0.51,0.48],[0.46,0.48],[0.51,0.32]];polyline=0;fontSize=104;fillColor=#E4C89E;" vertex="1" parent="12">
                    <mxGeometry x="7.59296220419875" y="3.3792449999999934" width="155.1229162035308" height="155.135" as="geometry"/>
                </mxCell>
            </root>
        </mxGraphModel>
    </diagram>
</mxfile>